<svg width="137" height="33" viewBox="0 0 137 33" fill="none" xmlns="http://www.w3.org/2000/svg">
<g clip-path="url(#clip0)">
<path d="M12.16 28.52C11.7333 28.4667 11.3333 28.44 10.96 28.44C10.6133 28.4133 10.3733 28.4 10.24 28.4C10.1333 28.3733 10.08 28.32 10.08 28.24C9.89333 27.3867 9.76 26.64 9.68 26C9.6 25.3333 9.54667 24.72 9.52 24.16C9.49333 23.36 9.42667 22.5733 9.32 21.8C9.24 21 9.05333 19.9467 8.76 18.64C7.26667 18.88 6.26667 19 5.76 19C5.22667 19 4.82667 18.9067 4.56 18.72C4.29333 18.5067 4.16 18.1733 4.16 17.72C4.16 17.4533 4.30667 17.32 4.6 17.32L5.8 17.2C5.98667 17.1733 6.84 17.0667 8.36 16.88C8.30667 16.1067 8.2 14.52 8.04 12.12C7.96 10.2 7.84 8.66667 7.68 7.52L2.68 7.96C2.30667 8.2 2.01333 8.32 1.8 8.32C1.48 8.08 1.28 7.77333 1.2 7.4C1.84 6.70667 3.37333 6.13333 5.8 5.68C8.25333 5.22667 10.9067 5 13.76 5C17.3333 5 20.4 5.38667 22.96 6.16C25.52 6.90667 26.9067 8.06667 27.12 9.64C26.2933 9.64 25.4933 9.54667 24.72 9.36C23.9467 9.17333 22.9733 8.89333 21.8 8.52C20.3067 8.01333 18.9333 7.62667 17.68 7.36C16.4533 7.09333 15.0667 6.96 13.52 6.96C12.5333 6.96 11.4533 7.04 10.28 7.2C10.28 9.68 10.3467 12.8133 10.48 16.6L11.88 16.48C16.1467 16.1333 18.64 15.96 19.36 15.96C19.7067 15.96 19.9467 15.9867 20.08 16.04C20.2133 16.0667 20.32 16.12 20.4 16.2C20.4267 17 19.6667 17.5733 18.12 17.92C16.5733 18.24 14.12 18.4667 10.76 18.6C10.8933 19.9067 11.1467 21.6133 11.52 23.72C11.8667 25.6933 12.08 27.2933 12.16 28.52ZM32.0975 29C31.6175 29 31.1908 28.7867 30.8175 28.36C30.4708 27.9067 30.1908 27.3867 29.9775 26.8C29.7908 26.1867 29.6975 25.6667 29.6975 25.24C29.6975 24.3867 29.8175 23.68 30.0575 23.12C30.3242 22.5333 30.6308 22.12 30.9775 21.88C31.3242 21.6133 31.6442 21.48 31.9375 21.48C32.8708 21.48 33.6175 21.9333 34.1775 22.84C34.7375 23.72 35.0175 24.6667 35.0175 25.68C35.0175 26.08 34.8575 26.5467 34.5375 27.08C34.2442 27.6133 33.8708 28.0667 33.4175 28.44C32.9642 28.8133 32.5242 29 32.0975 29ZM51.9016 6C51.9016 5.86666 52.0616 5.74666 52.3816 5.64C52.7016 5.50666 53.0082 5.44 53.3016 5.44C53.5149 5.44 53.6749 5.49333 53.7816 5.6C53.8882 5.68 53.8882 5.81333 53.7816 6C53.5682 6.42667 53.0882 7.33333 52.3416 8.72C51.2216 10.8 50.3282 12.6133 49.6616 14.16C48.9949 15.7067 48.4216 17.5867 47.9416 19.8C47.4616 22.0133 47.2216 24.5467 47.2216 27.4L47.2616 29.68C47.2616 29.9467 47.1416 30.1467 46.9016 30.28C46.6882 30.4133 46.4082 30.48 46.0616 30.48C45.7949 30.48 45.6216 30.44 45.5416 30.36C45.4882 30.28 45.4616 30.16 45.4616 30C45.4616 29.84 45.4616 29.72 45.4616 29.64C45.3816 28.6 45.3416 27.6133 45.3416 26.68C45.3416 24.5733 45.5282 22.56 45.9016 20.64C44.3016 18.6667 42.9949 16.9867 41.9816 15.6C40.9949 14.1867 40.0616 12.6267 39.1816 10.92C38.3016 9.21333 37.4749 7.24 36.7016 5C36.7549 5.02667 37.0216 5.01333 37.5016 4.96C37.9816 4.90667 38.2482 4.88 38.3016 4.88L39.5816 7.32C41.1016 10.2 42.3149 12.4 43.2216 13.92C44.1282 15.4133 45.1949 16.8667 46.4216 18.28C46.9816 16.1467 47.6616 14.2267 48.4616 12.52C49.2882 10.7867 50.2616 8.92 51.3816 6.92L51.9016 6ZM58.6209 29C58.1409 29 57.7143 28.7867 57.3409 28.36C56.9943 27.9067 56.7143 27.3867 56.5009 26.8C56.3143 26.1867 56.2209 25.6667 56.2209 25.24C56.2209 24.3867 56.3409 23.68 56.5809 23.12C56.8476 22.5333 57.1543 22.12 57.5009 21.88C57.8476 21.6133 58.1676 21.48 58.4609 21.48C59.3943 21.48 60.1409 21.9333 60.7009 22.84C61.2609 23.72 61.5409 24.6667 61.5409 25.68C61.5409 26.08 61.3809 26.5467 61.0609 27.08C60.7676 27.6133 60.3943 28.0667 59.9409 28.44C59.4876 28.8133 59.0476 29 58.6209 29ZM84.185 31.76C83.2783 31.76 82.665 31.28 82.345 30.32C82.0517 29.3867 81.905 28.36 81.905 27.24L82.025 26.08C80.7183 26.9067 79.1717 27.56 77.385 28.04C75.625 28.52 73.7717 28.76 71.825 28.76C70.4117 28.76 69.1583 28.44 68.065 27.8C66.9717 27.1333 66.1183 26.24 65.505 25.12C64.9183 23.9733 64.625 22.68 64.625 21.24C64.625 19.0533 65.4783 16.9867 67.185 15.04C68.8917 13.0667 70.985 11.4667 73.465 10.24C75.9717 8.98667 78.2917 8.28 80.425 8.12C81.4917 8.01333 82.3983 8.25333 83.145 8.84C83.8917 9.4 84.265 10.1867 84.265 11.2C83.705 11.2 83.0383 11.0533 82.265 10.76C82.1583 10.7333 81.8783 10.6533 81.425 10.52C80.9717 10.3867 80.505 10.32 80.025 10.32C78.1317 10.32 76.1183 10.8667 73.985 11.96C71.8783 13.0533 70.105 14.5067 68.665 16.32C67.2517 18.1067 66.545 19.9867 66.545 21.96C66.545 22.8933 66.825 23.7067 67.385 24.4C67.9717 25.0667 68.6917 25.5867 69.545 25.96C70.425 26.3067 71.305 26.48 72.185 26.48C74.2917 26.48 76.025 26.4 77.385 26.24C78.745 26.0533 79.9183 25.5867 80.905 24.84C81.8917 24.0667 82.385 22.8933 82.385 21.32C82.385 20.5733 82.225 20.0533 81.905 19.76H74.785C74.4117 19.76 74.0517 19.5733 73.705 19.2C73.385 18.8267 73.225 18.4533 73.225 18.08C73.225 17.4133 73.425 17.08 73.825 17.08C74.145 17.08 74.6517 17.2133 75.345 17.48C75.985 17.7733 76.5317 17.92 76.985 17.92C77.5717 17.92 78.4783 17.84 79.705 17.68C79.9183 17.6533 80.305 17.6133 80.865 17.56C81.425 17.5067 81.9317 17.48 82.385 17.48C82.8383 17.48 83.2783 17.68 83.705 18.08C84.1583 18.4533 84.3717 18.88 84.345 19.36L84.105 28.6C84.2917 28.9733 84.6117 29.2933 85.065 29.56C85.225 29.64 85.3583 29.7333 85.465 29.84C85.5717 29.9733 85.6383 30.1067 85.665 30.24C85.7983 30.5333 85.665 30.8533 85.265 31.2C84.865 31.5733 84.505 31.76 84.185 31.76ZM97.5831 29.04C96.0098 29.04 94.5831 28.6933 93.3031 28C92.0498 27.28 91.0631 26.2933 90.3431 25.04C89.6498 23.76 89.3031 22.3067 89.3031 20.68C89.3031 18.0133 90.2765 16.0267 92.2231 14.72C94.1965 13.4133 96.6098 12.76 99.4631 12.76C100.77 12.76 101.983 13.08 103.103 13.72C104.25 14.36 105.17 15.28 105.863 16.48C106.556 17.68 106.903 19.0667 106.903 20.64C106.903 22.3467 106.463 23.84 105.583 25.12C104.703 26.3733 103.543 27.3467 102.103 28.04C100.69 28.7067 99.1831 29.04 97.5831 29.04ZM97.1431 26.76C99.6231 26.76 101.503 26.2 102.783 25.08C104.063 23.96 104.703 22.32 104.703 20.16C104.703 18.6933 104.196 17.4267 103.183 16.36C102.196 15.2933 100.81 14.76 99.0231 14.76C97.8231 14.76 96.6098 14.9867 95.3831 15.44C94.1565 15.8933 93.1431 16.5733 92.3431 17.48C91.5431 18.3867 91.1431 19.48 91.1431 20.76C91.1431 21.8267 91.4098 22.8267 91.9431 23.76C92.4765 24.6667 93.1965 25.4 94.1031 25.96C95.0365 26.4933 96.0498 26.76 97.1431 26.76ZM120.364 29C117.591 29 115.178 28.52 113.124 27.56C111.098 26.5733 110.084 24.8533 110.084 22.4C110.084 21.52 110.351 20.6667 110.884 19.84C111.418 19.0133 112.204 18.3467 113.244 17.84C114.284 17.3067 115.551 17.04 117.044 17.04C118.191 17.04 119.164 17.0933 119.964 17.2C120.764 17.3067 121.684 17.6 122.724 18.08C123.764 18.56 124.844 19.32 125.964 20.36C125.538 18.52 124.898 16.9067 124.044 15.52C123.191 14.1333 122.231 13.0667 121.164 12.32C120.124 11.5467 119.098 11.16 118.084 11.16C117.604 11.16 117.151 11.2533 116.724 11.44C116.324 11.6 115.831 11.84 115.244 12.16C114.578 12.5867 114.084 12.8 113.764 12.8C113.631 12.8 113.511 12.76 113.404 12.68C113.324 12.5733 113.284 12.4533 113.284 12.32C113.284 11.2533 113.751 10.4267 114.684 9.84C115.644 9.25333 116.804 8.98667 118.164 9.04C120.031 9.14667 121.738 9.94667 123.284 11.44C124.831 12.9067 126.044 14.7333 126.924 16.92C127.831 19.1067 128.284 21.2533 128.284 23.36C128.284 23.7067 128.258 24.2 128.204 24.84L126.924 24.76C125.911 22.7067 124.604 21.2533 123.004 20.4C121.431 19.52 119.844 19.08 118.244 19.08C116.191 19.08 114.724 19.3867 113.844 20C112.964 20.6133 112.524 21.5067 112.524 22.68C112.524 23.9067 113.138 24.8933 114.364 25.64C115.591 26.3867 117.164 26.76 119.084 26.76C120.151 26.76 121.004 26.7067 121.644 26.6C122.284 26.4667 122.951 26.2933 123.644 26.08C124.204 25.8933 124.698 25.76 125.124 25.68C125.551 25.6 126.098 25.56 126.764 25.56C127.511 25.56 127.978 25.6133 128.164 25.72C128.378 25.8267 128.484 26.0667 128.484 26.44C128.484 26.7067 127.938 27.04 126.844 27.44C125.751 27.84 124.524 28.2 123.164 28.52C121.804 28.84 120.871 29 120.364 29ZM133.886 28.72C133.299 25.8133 132.846 22.3733 132.526 18.4C132.233 14.4 132.086 10.5333 132.086 6.8C132.086 4.93333 132.126 3.28 132.206 1.84C132.206 1.49333 132.473 1.32 133.006 1.32C133.433 1.32 133.699 1.42667 133.806 1.64C133.939 1.85333 134.006 2.18666 134.006 2.64C134.006 6.96 134.086 10.6533 134.246 13.72C134.406 16.76 134.619 20.04 134.886 23.56C135.046 25.8267 135.153 27.36 135.206 28.16C135.233 28.5867 135.006 28.8 134.526 28.8C134.366 28.8 134.153 28.7733 133.886 28.72Z" fill="white"/>
</g>
<defs>
<clipPath id="clip0">
<rect width="137" height="33" fill="white"/>
</clipPath>
</defs>
</svg>
